<svg width="349" height="44" viewBox="0 0 349 44" fill="none" xmlns="http://www.w3.org/2000/svg">
<rect x="0.5" y="0.5" width="348" height="43" rx="21.5" stroke="url(#paint0_linear_113_1597)"/>
<g clip-path="url(#clip0_113_1597)">
<path d="M46 16C46 14.9 45.1 14 44 14H28C26.9 14 26 14.9 26 16V28C26 29.1 26.9 30 28 30H44C45.1 30 46 29.1 46 28V16ZM44 16L36 20.99L28 16H44ZM44 28H28V18L36 23L44 18V28Z" fill="url(#paint1_linear_113_1597)"/>
</g>
<path d="M58.688 22.416C58.688 21.328 58.9333 20.352 59.424 19.488C59.9147 18.6133 60.5813 17.9307 61.424 17.44C62.2773 16.9493 63.2213 16.704 64.256 16.704C65.472 16.704 66.5333 16.9973 67.44 17.584C68.3467 18.1707 69.008 19.0027 69.424 20.08H67.68C67.3707 19.408 66.9227 18.8907 66.336 18.528C65.76 18.1653 65.0667 17.984 64.256 17.984C63.4773 17.984 62.7787 18.1653 62.16 18.528C61.5413 18.8907 61.056 19.408 60.704 20.08C60.352 20.7413 60.176 21.52 60.176 22.416C60.176 23.3013 60.352 24.08 60.704 24.752C61.056 25.4133 61.5413 25.9253 62.16 26.288C62.7787 26.6507 63.4773 26.832 64.256 26.832C65.0667 26.832 65.76 26.656 66.336 26.304C66.9227 25.9413 67.3707 25.424 67.68 24.752H69.424C69.008 25.8187 68.3467 26.6453 67.44 27.232C66.5333 27.808 65.472 28.096 64.256 28.096C63.2213 28.096 62.2773 27.856 61.424 27.376C60.5813 26.8853 59.9147 26.208 59.424 25.344C58.9333 24.48 58.688 23.504 58.688 22.416ZM71.0474 23.584C71.0474 22.688 71.2287 21.904 71.5914 21.232C71.954 20.5493 72.45 20.0213 73.0794 19.648C73.7194 19.2747 74.4287 19.088 75.2074 19.088C75.9754 19.088 76.642 19.2533 77.2074 19.584C77.7727 19.9147 78.194 20.3307 78.4714 20.832V19.232H79.9434V28H78.4714V26.368C78.1834 26.88 77.7514 27.3067 77.1754 27.648C76.61 27.9787 75.9487 28.144 75.1914 28.144C74.4127 28.144 73.7087 27.952 73.0794 27.568C72.45 27.184 71.954 26.6453 71.5914 25.952C71.2287 25.2587 71.0474 24.4693 71.0474 23.584ZM78.4714 23.6C78.4714 22.9387 78.338 22.3627 78.0714 21.872C77.8047 21.3813 77.442 21.008 76.9834 20.752C76.5354 20.4853 76.0394 20.352 75.4954 20.352C74.9514 20.352 74.4554 20.48 74.0074 20.736C73.5594 20.992 73.202 21.3653 72.9354 21.856C72.6687 22.3467 72.5354 22.9227 72.5354 23.584C72.5354 24.256 72.6687 24.8427 72.9354 25.344C73.202 25.8347 73.5594 26.2133 74.0074 26.48C74.4554 26.736 74.9514 26.864 75.4954 26.864C76.0394 26.864 76.5354 26.736 76.9834 26.48C77.442 26.2133 77.8047 25.8347 78.0714 25.344C78.338 24.8427 78.4714 24.2613 78.4714 23.6ZM81.8599 23.584C81.8599 22.688 82.0412 21.904 82.4039 21.232C82.7665 20.5493 83.2625 20.0213 83.8919 19.648C84.5319 19.2747 85.2465 19.088 86.0359 19.088C86.7185 19.088 87.3532 19.248 87.9399 19.568C88.5265 19.8773 88.9745 20.288 89.2839 20.8V16.16H90.7559V28H89.2839V26.352C88.9959 26.8747 88.5692 27.3067 88.0039 27.648C87.4385 27.9787 86.7772 28.144 86.0199 28.144C85.2412 28.144 84.5319 27.952 83.8919 27.568C83.2625 27.184 82.7665 26.6453 82.4039 25.952C82.0412 25.2587 81.8599 24.4693 81.8599 23.584ZM89.2839 23.6C89.2839 22.9387 89.1505 22.3627 88.8839 21.872C88.6172 21.3813 88.2545 21.008 87.7959 20.752C87.3479 20.4853 86.8519 20.352 86.3079 20.352C85.7639 20.352 85.2679 20.48 84.8199 20.736C84.3719 20.992 84.0145 21.3653 83.7479 21.856C83.4812 22.3467 83.3479 22.9227 83.3479 23.584C83.3479 24.256 83.4812 24.8427 83.7479 25.344C84.0145 25.8347 84.3719 26.2133 84.8199 26.48C85.2679 26.736 85.7639 26.864 86.3079 26.864C86.8519 26.864 87.3479 26.736 87.7959 26.48C88.2545 26.2133 88.6172 25.8347 88.8839 25.344C89.1505 24.8427 89.2839 24.2613 89.2839 23.6ZM92.6724 23.584C92.6724 22.688 92.8537 21.904 93.2164 21.232C93.579 20.5493 94.075 20.0213 94.7044 19.648C95.3444 19.2747 96.0537 19.088 96.8324 19.088C97.6004 19.088 98.267 19.2533 98.8324 19.584C99.3977 19.9147 99.819 20.3307 100.096 20.832V19.232H101.568V28H100.096V26.368C99.8084 26.88 99.3764 27.3067 98.8004 27.648C98.235 27.9787 97.5737 28.144 96.8164 28.144C96.0377 28.144 95.3337 27.952 94.7044 27.568C94.075 27.184 93.579 26.6453 93.2164 25.952C92.8537 25.2587 92.6724 24.4693 92.6724 23.584ZM100.096 23.6C100.096 22.9387 99.963 22.3627 99.6964 21.872C99.4297 21.3813 99.067 21.008 98.6084 20.752C98.1604 20.4853 97.6644 20.352 97.1204 20.352C96.5764 20.352 96.0804 20.48 95.6324 20.736C95.1844 20.992 94.827 21.3653 94.5604 21.856C94.2937 22.3467 94.1604 22.9227 94.1604 23.584C94.1604 24.256 94.2937 24.8427 94.5604 25.344C94.827 25.8347 95.1844 26.2133 95.6324 26.48C96.0804 26.736 96.5764 26.864 97.1204 26.864C97.6644 26.864 98.1604 26.736 98.6084 26.48C99.067 26.2133 99.4297 25.8347 99.6964 25.344C99.963 24.8427 100.096 24.2613 100.096 23.6ZM107.133 28.144C106.461 28.144 105.858 28.032 105.325 27.808C104.792 27.5733 104.37 27.2533 104.061 26.848C103.752 26.432 103.581 25.9573 103.549 25.424H105.053C105.096 25.8613 105.298 26.2187 105.661 26.496C106.034 26.7733 106.52 26.912 107.117 26.912C107.672 26.912 108.109 26.7893 108.429 26.544C108.749 26.2987 108.909 25.9893 108.909 25.616C108.909 25.232 108.738 24.9493 108.397 24.768C108.056 24.576 107.528 24.3893 106.813 24.208C106.162 24.0373 105.629 23.8667 105.213 23.696C104.808 23.5147 104.456 23.2533 104.157 22.912C103.869 22.56 103.725 22.1013 103.725 21.536C103.725 21.088 103.858 20.6773 104.125 20.304C104.392 19.9307 104.77 19.6373 105.261 19.424C105.752 19.2 106.312 19.088 106.941 19.088C107.912 19.088 108.696 19.3333 109.293 19.824C109.89 20.3147 110.21 20.9867 110.253 21.84H108.797C108.765 21.3813 108.578 21.0133 108.237 20.736C107.906 20.4587 107.458 20.32 106.893 20.32C106.37 20.32 105.954 20.432 105.645 20.656C105.336 20.88 105.181 21.1733 105.181 21.536C105.181 21.824 105.272 22.064 105.453 22.256C105.645 22.4373 105.88 22.5867 106.157 22.704C106.445 22.8107 106.84 22.9333 107.341 23.072C107.97 23.2427 108.482 23.4133 108.877 23.584C109.272 23.744 109.608 23.9893 109.885 24.32C110.173 24.6507 110.322 25.0827 110.333 25.616C110.333 26.096 110.2 26.528 109.933 26.912C109.666 27.296 109.288 27.6 108.797 27.824C108.317 28.0373 107.762 28.144 107.133 28.144ZM114.164 20.432V25.6C114.164 26.0267 114.255 26.3307 114.436 26.512C114.618 26.6827 114.932 26.768 115.38 26.768H116.452V28H115.14C114.33 28 113.722 27.8133 113.316 27.44C112.911 27.0667 112.708 26.4533 112.708 25.6V20.432H111.572V19.232H112.708V17.024H114.164V19.232H116.452V20.432H114.164ZM119.672 20.656C119.928 20.1547 120.291 19.7653 120.76 19.488C121.24 19.2107 121.822 19.072 122.504 19.072V20.576H122.12C120.488 20.576 119.672 21.4613 119.672 23.232V28H118.216V19.232H119.672V20.656ZM132.185 23.28C132.185 23.5573 132.169 23.8507 132.137 24.16H125.129C125.182 25.024 125.476 25.7013 126.009 26.192C126.553 26.672 127.209 26.912 127.977 26.912C128.606 26.912 129.129 26.768 129.545 26.48C129.972 26.1813 130.27 25.7867 130.441 25.296H132.009C131.774 26.1387 131.305 26.8267 130.601 27.36C129.897 27.8827 129.022 28.144 127.977 28.144C127.145 28.144 126.398 27.9573 125.737 27.584C125.086 27.2107 124.574 26.6827 124.201 26C123.828 25.3067 123.641 24.5067 123.641 23.6C123.641 22.6933 123.822 21.8987 124.185 21.216C124.548 20.5333 125.054 20.0107 125.705 19.648C126.366 19.2747 127.124 19.088 127.977 19.088C128.809 19.088 129.545 19.2693 130.185 19.632C130.825 19.9947 131.316 20.496 131.657 21.136C132.009 21.7653 132.185 22.48 132.185 23.28ZM130.681 22.976C130.681 22.4213 130.558 21.9467 130.313 21.552C130.068 21.1467 129.732 20.8427 129.305 20.64C128.889 20.4267 128.425 20.32 127.913 20.32C127.177 20.32 126.548 20.5547 126.025 21.024C125.513 21.4933 125.22 22.144 125.145 22.976H130.681ZM141.477 28.144C140.805 28.144 140.202 28.032 139.669 27.808C139.135 27.5733 138.714 27.2533 138.405 26.848C138.095 26.432 137.925 25.9573 137.893 25.424H139.397C139.439 25.8613 139.642 26.2187 140.005 26.496C140.378 26.7733 140.863 26.912 141.461 26.912C142.015 26.912 142.453 26.7893 142.773 26.544C143.093 26.2987 143.253 25.9893 143.253 25.616C143.253 25.232 143.082 24.9493 142.741 24.768C142.399 24.576 141.871 24.3893 141.157 24.208C140.506 24.0373 139.973 23.8667 139.557 23.696C139.151 23.5147 138.799 23.2533 138.501 22.912C138.213 22.56 138.069 22.1013 138.069 21.536C138.069 21.088 138.202 20.6773 138.469 20.304C138.735 19.9307 139.114 19.6373 139.605 19.424C140.095 19.2 140.655 19.088 141.285 19.088C142.255 19.088 143.039 19.3333 143.637 19.824C144.234 20.3147 144.554 20.9867 144.597 21.84H143.141C143.109 21.3813 142.922 21.0133 142.581 20.736C142.25 20.4587 141.802 20.32 141.237 20.32C140.714 20.32 140.298 20.432 139.989 20.656C139.679 20.88 139.525 21.1733 139.525 21.536C139.525 21.824 139.615 22.064 139.797 22.256C139.989 22.4373 140.223 22.5867 140.501 22.704C140.789 22.8107 141.183 22.9333 141.685 23.072C142.314 23.2427 142.826 23.4133 143.221 23.584C143.615 23.744 143.951 23.9893 144.229 24.32C144.517 24.6507 144.666 25.0827 144.677 25.616C144.677 26.096 144.543 26.528 144.277 26.912C144.01 27.296 143.631 27.6 143.141 27.824C142.661 28.0373 142.106 28.144 141.477 28.144ZM154.732 23.28C154.732 23.5573 154.716 23.8507 154.684 24.16H147.676C147.729 25.024 148.023 25.7013 148.556 26.192C149.1 26.672 149.756 26.912 150.524 26.912C151.153 26.912 151.676 26.768 152.092 26.48C152.519 26.1813 152.817 25.7867 152.988 25.296H154.556C154.321 26.1387 153.852 26.8267 153.148 27.36C152.444 27.8827 151.569 28.144 150.524 28.144C149.692 28.144 148.945 27.9573 148.284 27.584C147.633 27.2107 147.121 26.6827 146.748 26C146.375 25.3067 146.188 24.5067 146.188 23.6C146.188 22.6933 146.369 21.8987 146.732 21.216C147.095 20.5333 147.601 20.0107 148.252 19.648C148.913 19.2747 149.671 19.088 150.524 19.088C151.356 19.088 152.092 19.2693 152.732 19.632C153.372 19.9947 153.863 20.496 154.204 21.136C154.556 21.7653 154.732 22.48 154.732 23.28ZM153.228 22.976C153.228 22.4213 153.105 21.9467 152.86 21.552C152.615 21.1467 152.279 20.8427 151.852 20.64C151.436 20.4267 150.972 20.32 150.46 20.32C149.724 20.32 149.095 20.5547 148.572 21.024C148.06 21.4933 147.767 22.144 147.692 22.976H153.228ZM164.43 19.232V28H162.974V26.704C162.697 27.152 162.307 27.504 161.806 27.76C161.315 28.0053 160.771 28.128 160.174 28.128C159.491 28.128 158.878 27.9893 158.334 27.712C157.79 27.424 157.358 26.9973 157.038 26.432C156.729 25.8667 156.574 25.1787 156.574 24.368V19.232H158.014V24.176C158.014 25.04 158.233 25.7067 158.67 26.176C159.107 26.6347 159.705 26.864 160.462 26.864C161.241 26.864 161.854 26.624 162.302 26.144C162.75 25.664 162.974 24.9653 162.974 24.048V19.232H164.43ZM179.154 23.28C179.154 23.5573 179.138 23.8507 179.106 24.16H172.098C172.151 25.024 172.445 25.7013 172.978 26.192C173.522 26.672 174.178 26.912 174.946 26.912C175.575 26.912 176.098 26.768 176.514 26.48C176.941 26.1813 177.239 25.7867 177.41 25.296H178.978C178.743 26.1387 178.274 26.8267 177.57 27.36C176.866 27.8827 175.991 28.144 174.946 28.144C174.114 28.144 173.367 27.9573 172.706 27.584C172.055 27.2107 171.543 26.6827 171.17 26C170.797 25.3067 170.61 24.5067 170.61 23.6C170.61 22.6933 170.791 21.8987 171.154 21.216C171.517 20.5333 172.023 20.0107 172.674 19.648C173.335 19.2747 174.093 19.088 174.946 19.088C175.778 19.088 176.514 19.2693 177.154 19.632C177.794 19.9947 178.285 20.496 178.626 21.136C178.978 21.7653 179.154 22.48 179.154 23.28ZM177.65 22.976C177.65 22.4213 177.527 21.9467 177.282 21.552C177.037 21.1467 176.701 20.8427 176.274 20.64C175.858 20.4267 175.394 20.32 174.882 20.32C174.146 20.32 173.517 20.5547 172.994 21.024C172.482 21.4933 172.189 22.144 172.114 22.976H177.65ZM187.156 21.52V22.752H180.772V21.52H187.156ZM200.432 19.072C201.115 19.072 201.723 19.216 202.256 19.504C202.79 19.7813 203.211 20.2027 203.52 20.768C203.83 21.3333 203.984 22.0213 203.984 22.832V28H202.544V23.04C202.544 22.1653 202.326 21.4987 201.888 21.04C201.462 20.5707 200.88 20.336 200.144 20.336C199.387 20.336 198.784 20.5813 198.336 21.072C197.888 21.552 197.664 22.2507 197.664 23.168V28H196.224V23.04C196.224 22.1653 196.006 21.4987 195.568 21.04C195.142 20.5707 194.56 20.336 193.824 20.336C193.067 20.336 192.464 20.5813 192.016 21.072C191.568 21.552 191.344 22.2507 191.344 23.168V28H189.888V19.232H191.344V20.496C191.632 20.0373 192.016 19.6853 192.496 19.44C192.987 19.1947 193.526 19.072 194.112 19.072C194.848 19.072 195.499 19.2373 196.064 19.568C196.63 19.8987 197.051 20.384 197.328 21.024C197.574 20.4053 197.979 19.9253 198.544 19.584C199.11 19.2427 199.739 19.072 200.432 19.072ZM205.829 23.584C205.829 22.688 206.01 21.904 206.373 21.232C206.735 20.5493 207.231 20.0213 207.861 19.648C208.501 19.2747 209.21 19.088 209.989 19.088C210.757 19.088 211.423 19.2533 211.989 19.584C212.554 19.9147 212.975 20.3307 213.253 20.832V19.232H214.725V28H213.253V26.368C212.965 26.88 212.533 27.3067 211.957 27.648C211.391 27.9787 210.73 28.144 209.973 28.144C209.194 28.144 208.49 27.952 207.861 27.568C207.231 27.184 206.735 26.6453 206.373 25.952C206.01 25.2587 205.829 24.4693 205.829 23.584ZM213.253 23.6C213.253 22.9387 213.119 22.3627 212.853 21.872C212.586 21.3813 212.223 21.008 211.765 20.752C211.317 20.4853 210.821 20.352 210.277 20.352C209.733 20.352 209.237 20.48 208.789 20.736C208.341 20.992 207.983 21.3653 207.717 21.856C207.45 22.3467 207.317 22.9227 207.317 23.584C207.317 24.256 207.45 24.8427 207.717 25.344C207.983 25.8347 208.341 26.2133 208.789 26.48C209.237 26.736 209.733 26.864 210.277 26.864C210.821 26.864 211.317 26.736 211.765 26.48C212.223 26.2133 212.586 25.8347 212.853 25.344C213.119 24.8427 213.253 24.2613 213.253 23.6ZM217.937 17.808C217.66 17.808 217.425 17.712 217.233 17.52C217.041 17.328 216.945 17.0933 216.945 16.816C216.945 16.5387 217.041 16.304 217.233 16.112C217.425 15.92 217.66 15.824 217.937 15.824C218.204 15.824 218.428 15.92 218.609 16.112C218.801 16.304 218.897 16.5387 218.897 16.816C218.897 17.0933 218.801 17.328 218.609 17.52C218.428 17.712 218.204 17.808 217.937 17.808ZM218.641 19.232V28H217.185V19.232H218.641ZM222.579 16.16V28H221.123V16.16H222.579Z" fill="url(#paint2_linear_113_1597)"/>
<defs>
<linearGradient id="paint0_linear_113_1597" x1="145.821" y1="-5.28002" x2="389.892" y2="251.059" gradientUnits="userSpaceOnUse">
<stop stop-color="#002F52"/>
<stop offset="1" stop-color="#326589"/>
</linearGradient>
<linearGradient id="paint1_linear_113_1597" x1="34.3565" y1="12.08" x2="62.9873" y2="16.8188" gradientUnits="userSpaceOnUse">
<stop stop-color="#002F52"/>
<stop offset="1" stop-color="#326589"/>
</linearGradient>
<linearGradient id="paint2_linear_113_1597" x1="127.359" y1="7.11999" x2="260.135" y2="128.723" gradientUnits="userSpaceOnUse">
<stop stop-color="#002F52"/>
<stop offset="1" stop-color="#326589"/>
</linearGradient>
<clipPath id="clip0_113_1597">
<rect width="24" height="24" fill="white" transform="translate(24 10)"/>
</clipPath>
</defs>
</svg>
